{"glyphs":{"0":{"ha":566,"x_min":33,"x_max":555,"o":"m 185 658 q 242 684 225 658 q 258 742 258 710 q 241 803 258 777 q 185 829 223 829 l 77 829 l 77 658 l 185 658 m 435 311 q 494 340 476 311 q 511 407 511 369 q 494 470 511 440 q 435 499 476 499 q 376 469 393 499 q 358 406 358 440 q 376 340 358 369 q 435 311 393 311 m 185 609 l 33 609 l 33 877 l 185 877 q 274 837 245 877 q 302 742 302 796 q 274 650 302 691 q 185 609 246 609 m 435 265 q 344 308 374 265 q 315 404 315 351 q 345 500 315 456 q 435 545 374 545 q 525 502 495 545 q 555 406 555 459 q 526 308 555 350 q 435 265 496 265 m 283 271 l 240 271 l 240 465 l 163 349 l 155 349 l 81 466 l 81 271 l 37 271 l 37 539 l 87 539 l 161 424 l 233 539 l 283 539 l 283 271 m 534 609 l 359 609 l 359 658 l 491 658 l 491 720 l 364 720 l 364 767 l 491 767 l 491 827 l 359 827 l 359 877 l 534 877 l 534 609 z "},"1":{"ha":306,"x_min":75,"x_max":240,"o":"m 240 188 l 75 188 l 75 817 q 95 897 75 873 q 151 923 115 920 q 196 925 172 925 q 240 924 216 925 l 240 188 z "},"2":{"ha":608,"x_min":38,"x_max":558,"o":"m 469 184 l 38 185 q 56 339 38 281 q 110 442 75 397 q 197 538 146 487 q 333 706 333 671 q 330 720 333 713 q 278 763 315 753 q 203 775 241 773 q 168 779 183 777 q 128 829 132 787 q 127 854 127 841 q 134 926 127 887 q 183 928 159 928 q 316 913 244 928 q 445 850 389 898 q 503 723 501 803 q 480 624 501 663 q 430 551 458 585 q 252 345 407 524 l 270 345 l 269 344 l 558 345 q 554 259 558 295 q 531 203 549 222 q 469 184 512 184 z "},"3":{"ha":580,"x_min":43,"x_max":547,"o":"m 376 184 l 124 184 q 103 186 114 184 q 74 242 75 192 q 73 341 73 292 l 294 342 q 369 378 351 345 q 378 411 378 394 q 302 478 378 473 l 161 477 q 134 478 150 477 q 103 492 119 480 q 76 531 87 504 q 66 609 66 559 l 66 648 l 174 648 q 216 692 204 664 q 224 724 224 709 q 186 765 224 760 q 154 767 170 767 l 136 766 q 64 784 82 766 q 43 839 43 804 l 44 846 l 44 926 q 225 925 135 926 q 365 884 316 924 q 416 774 416 842 q 373 650 416 714 q 380 649 374 649 l 387 650 q 420 646 398 650 q 470 619 441 642 q 547 435 547 551 q 518 304 547 373 q 420 196 490 235 q 399 186 408 189 q 376 184 391 184 z "},"4":{"ha":639,"x_min":6,"x_max":568,"o":"m 505 184 l 404 184 l 404 443 q 283 425 345 425 q 204 431 260 425 q 86 481 149 437 q 11 607 22 526 l 6 825 l 107 826 q 180 798 165 825 q 194 738 194 773 l 195 707 q 197 655 195 664 q 290 592 216 592 q 348 606 315 592 q 383 667 380 621 l 382 829 q 384 857 382 842 q 513 925 392 925 l 568 925 l 568 248 q 565 211 568 224 q 547 191 561 197 q 505 184 534 184 z "},"5":{"ha":611,"x_min":49,"x_max":570,"o":"m 201 658 q 258 684 241 658 q 274 742 274 710 q 256 803 274 777 q 201 829 239 829 l 92 829 l 92 658 l 201 658 m 450 311 q 509 340 492 311 q 527 407 527 369 q 509 470 527 440 q 450 499 492 499 q 391 469 409 499 q 374 406 374 440 q 391 340 374 369 q 450 311 409 311 m 201 609 l 49 609 l 49 877 l 201 877 q 289 837 261 877 q 317 742 317 796 q 290 650 317 691 q 201 609 262 609 m 450 265 q 360 308 389 265 q 330 404 330 351 q 360 500 330 456 q 450 545 390 545 q 541 502 511 545 q 570 406 570 459 q 541 308 570 350 q 450 265 512 265 m 299 271 l 256 271 l 256 465 l 179 349 l 171 349 l 96 466 l 96 271 l 52 271 l 52 539 l 103 539 l 176 424 l 249 539 l 299 539 l 299 271 m 550 609 l 375 609 l 375 658 l 507 658 l 507 720 l 380 720 l 380 767 l 507 767 l 507 827 l 375 827 l 375 877 l 550 877 l 550 609 z "},"6":{"ha":591,"x_min":49,"x_max":538,"o":"m 294 180 q 170 214 226 180 q 82 302 115 247 q 49 425 49 357 q 54 476 49 452 q 73 601 64 536 q 117 871 95 751 q 162 922 126 914 q 217 926 185 926 q 277 924 227 926 l 243 665 q 294 670 267 670 q 416 637 361 670 q 505 548 472 604 q 538 425 538 493 q 505 302 538 357 q 416 214 472 247 q 294 180 361 180 m 294 345 q 350 369 327 345 q 374 425 374 392 q 350 482 374 458 q 294 505 327 505 q 237 482 260 505 q 214 425 214 458 q 237 369 214 392 q 294 345 260 345 z "},"7":{"ha":475,"x_min":1,"x_max":392,"o":"m 267 183 q 258 183 262 183 q 125 184 254 184 l 207 726 q 203 745 207 734 q 146 772 190 768 q 101 774 123 774 q 67 772 83 774 q 7 809 16 772 q 1 863 1 833 q 3 890 1 876 q 4 926 4 909 l 203 925 q 342 880 295 924 q 392 745 392 832 l 391 723 q 319 235 391 715 q 283 184 311 189 l 267 183 z "},"8":{"ha":563,"x_min":50,"x_max":508,"o":"m 279 188 q 126 246 190 188 q 63 387 63 304 q 111 511 63 457 q 50 637 53 553 l 50 775 q 169 931 52 890 q 271 947 218 947 l 287 947 q 391 930 340 947 q 474 874 441 913 q 508 775 507 836 l 508 637 q 446 511 505 553 q 494 387 494 457 q 431 246 494 304 q 279 188 368 188 m 281 589 q 333 603 310 589 q 357 646 355 617 l 357 686 l 357 766 q 333 809 355 795 q 281 823 310 823 l 276 823 q 225 809 248 823 q 201 766 202 795 l 201 646 q 225 603 202 617 q 276 589 248 589 l 281 589 m 279 321 q 329 340 308 321 q 349 387 349 359 q 329 432 349 413 q 279 451 308 451 q 229 432 250 451 q 208 387 208 413 q 229 340 208 359 q 279 321 250 321 z "},"9":{"ha":566,"x_min":48,"x_max":507,"o":"m 280 529 q 332 545 309 529 q 356 593 355 561 l 355 680 l 356 724 q 332 772 355 756 q 280 787 309 787 l 275 787 q 224 772 247 787 q 199 724 201 756 l 199 593 q 224 545 201 561 q 275 529 247 529 l 280 529 m 414 184 l 289 184 l 325 395 q 286 392 305 392 l 270 392 q 168 410 216 392 q 83 472 116 430 q 49 582 50 515 l 48 694 l 49 734 q 83 844 50 802 q 167 906 116 886 q 273 925 218 925 l 281 925 q 389 906 338 925 q 472 844 439 886 q 507 734 505 802 l 507 591 l 507 571 q 460 222 505 557 q 443 189 456 194 q 414 184 429 184 z "},"\u0000":{"ha":694,"x_min":68,"x_max":627,"o":"m 68 0 l 68 972 l 627 972 l 627 0 l 68 0 m 102 34 l 593 34 l 593 939 l 102 939 l 102 34 m 220 779 q 260 808 241 798 q 336 828 296 828 q 436 796 398 828 q 474 709 474 764 q 458 643 474 676 q 399 555 443 609 q 332 465 357 500 q 308 398 308 430 q 324 308 308 372 l 302 308 q 279 408 279 374 q 334 556 279 460 q 389 703 389 652 q 367 764 389 742 q 305 787 345 787 q 258 775 279 787 q 220 748 241 765 l 220 779 m 264 227 l 302 266 q 316 273 310 273 q 331 265 323 273 l 369 224 q 375 211 375 217 q 368 196 375 203 l 330 154 q 316 144 321 144 q 302 151 309 144 l 261 199 q 256 212 256 205 q 264 227 256 218 z "}," ":{"ha":345,"x_min":0,"x_max":0,"o":""},"!":{"ha":337,"x_min":83,"x_max":250,"o":"m 250 224 l 85 224 l 85 853 q 105 933 85 910 q 162 960 125 956 q 203 962 180 962 q 250 960 224 962 l 250 224 m 166 3 q 107 28 132 3 q 83 86 83 52 q 107 145 83 121 q 166 170 132 170 q 225 145 201 170 q 250 86 250 121 q 225 28 250 52 q 166 3 201 3 z "},"\"":{"ha":528,"x_min":75,"x_max":460,"o":"m 187 675 q 117 684 153 675 q 77 746 81 693 q 75 875 75 780 l 233 875 q 234 692 233 717 l 234 676 l 187 675 m 414 675 q 343 684 380 675 q 303 746 307 693 q 301 875 302 780 l 460 875 q 460 692 460 717 l 460 676 l 414 675 z "},"#":{"ha":840,"x_min":-20,"x_max":776,"o":"m 433 447 l 461 536 l 368 536 l 340 447 l 433 447 m 491 165 l 345 165 l 389 307 l 297 307 l 252 165 l 106 165 l 151 307 l -20 307 q 21 409 -5 372 q 123 446 47 446 l 194 447 l 222 535 l 52 535 q 92 637 66 601 q 194 675 118 674 l 265 675 l 280 721 q 346 808 303 793 q 418 818 376 818 q 456 816 435 818 l 412 675 l 505 675 l 519 721 q 585 808 542 793 q 656 818 614 818 q 694 816 674 818 l 651 675 l 776 675 l 732 536 l 607 536 l 579 448 l 705 448 l 662 308 l 536 308 l 491 165 z "},"$":{"ha":504,"x_min":57,"x_max":463,"o":"m 302 102 q 231 108 263 102 q 197 144 199 115 l 197 182 q 105 228 143 196 q 59 310 66 260 l 57 371 l 191 371 l 192 361 q 219 311 194 326 q 260 298 238 298 q 286 301 267 298 q 320 327 304 304 q 328 371 328 340 q 323 413 328 401 q 271 439 310 434 q 199 442 237 442 l 161 441 q 102 448 123 441 q 60 531 61 465 l 58 651 q 99 763 59 722 q 197 816 138 803 l 197 927 l 220 928 q 290 921 258 928 q 323 886 321 915 l 323 814 q 415 768 377 800 q 460 687 452 736 l 462 627 l 328 627 q 292 691 328 676 q 259 698 275 698 q 192 642 196 698 l 193 563 q 296 557 241 563 q 456 446 423 545 q 463 394 462 425 l 463 346 q 422 234 462 275 q 323 181 382 193 l 324 102 l 302 102 z "},"%":{"ha":722,"x_min":28,"x_max":674,"o":"m 511 138 q 397 185 444 138 q 349 300 349 233 l 350 312 l 277 144 l 111 144 l 315 613 q 191 555 266 555 q 76 603 123 555 q 28 718 28 650 q 76 832 28 785 q 191 880 123 880 q 306 832 258 880 q 353 718 353 785 q 352 697 353 707 l 385 773 q 439 853 410 829 q 508 880 469 876 q 553 882 529 882 q 597 880 574 882 l 393 411 q 511 463 441 463 q 626 415 578 463 q 674 300 674 368 q 626 185 674 233 q 511 138 578 138 m 191 664 q 229 680 213 664 q 244 718 244 695 q 229 755 244 739 q 191 770 213 770 q 153 755 169 770 q 138 718 138 739 q 153 680 138 695 q 191 664 169 664 m 511 247 q 549 262 534 247 q 565 300 565 278 q 549 338 565 322 q 511 353 534 353 q 474 338 490 353 q 458 300 458 322 q 474 262 458 278 q 511 247 490 247 z "},"&":{"ha":1069,"x_min":37,"x_max":1017,"o":"m 941 256 l 475 256 l 471 257 q 391 343 428 269 q 311 257 357 270 l 310 256 l 37 256 l 37 415 q 221 419 204 415 q 268 464 268 434 q 248 501 268 483 q 182 522 227 519 q 164 523 176 522 q 152 526 153 524 l 155 676 q 391 764 272 764 q 629 676 509 764 l 631 526 q 620 523 631 524 q 601 522 608 522 q 532 494 556 517 q 513 456 513 475 q 516 438 513 452 q 562 415 519 423 q 727 410 597 410 q 951 416 873 410 q 1017 432 1001 422 l 1017 324 q 1008 279 1017 296 q 941 256 996 258 m 391 506 q 419 556 404 537 q 448 584 434 574 q 470 596 461 593 l 479 599 q 391 624 435 624 q 304 599 348 624 q 358 563 335 591 q 391 506 381 534 z "},"'":{"ha":235,"x_min":38,"x_max":197,"o":"m 151 682 q 80 691 117 682 q 40 753 44 701 q 38 882 39 787 l 197 882 q 197 699 197 724 l 197 684 l 151 682 z "},"(":{"ha":424,"x_min":68,"x_max":346,"o":"m 327 5 q 140 72 208 5 q 68 268 71 138 l 68 789 q 142 987 71 918 q 325 1051 208 1051 l 346 1050 l 346 873 q 251 796 254 872 l 251 260 q 346 183 254 184 l 346 5 l 327 5 z "},")":{"ha":413,"x_min":68,"x_max":346,"o":"m 87 1051 q 274 984 205 1051 q 346 788 342 918 l 346 267 q 271 68 342 138 q 89 5 206 5 l 68 5 l 68 182 q 163 260 159 184 l 163 795 q 68 873 159 871 l 68 1050 l 87 1051 z "},"*":{"ha":681,"x_min":27,"x_max":622,"o":"m 182 280 q 79 335 148 280 l 194 502 q 101 528 148 515 q 39 563 54 541 q 27 600 27 579 q 50 693 27 629 l 235 642 l 235 747 q 253 817 235 797 q 302 840 270 838 q 342 842 321 842 q 380 841 360 842 l 380 647 l 466 698 q 527 720 502 720 q 546 717 531 720 q 581 688 562 715 q 622 622 601 662 l 447 517 l 595 371 q 541 317 565 336 q 493 297 517 297 q 476 298 490 297 q 426 333 461 299 l 323 433 q 253 331 288 382 q 182 280 217 280 z "},"+":{"ha":715,"x_min":66,"x_max":652,"o":"m 438 172 l 280 172 l 279 386 l 66 385 l 66 543 l 279 544 l 279 758 l 304 758 q 394 743 354 758 q 437 659 435 728 l 437 544 l 650 545 l 652 517 q 636 429 652 469 q 551 387 621 389 l 437 386 l 438 172 z "},",":{"ha":406,"x_min":112,"x_max":292,"o":"m 115 75 l 115 155 q 184 192 164 169 q 112 273 112 203 q 130 330 112 305 l 268 330 q 292 259 292 299 q 235 138 292 189 q 115 75 189 96 z "},"-":{"ha":545,"x_min":57,"x_max":479,"o":"m 57 410 q 86 526 67 484 q 161 568 106 567 l 479 569 l 479 411 l 57 410 z "},".":{"ha":271,"x_min":52,"x_max":219,"o":"m 136 191 q 77 215 101 191 q 52 274 52 239 q 77 333 52 309 q 136 357 101 357 q 194 333 170 357 q 219 274 219 309 q 194 215 219 239 q 136 191 170 191 z "},"/":{"ha":483,"x_min":34,"x_max":471,"o":"m 199 178 l 34 178 l 265 807 q 315 887 286 863 q 382 914 343 910 q 423 916 401 916 q 471 914 446 916 l 199 178 z "},":":{"ha":378,"x_min":103,"x_max":270,"o":"m 186 209 q 127 233 152 209 q 103 292 103 258 q 127 351 103 327 q 186 376 152 376 q 245 351 221 376 q 270 292 270 327 q 245 233 270 258 q 186 209 221 209 m 186 514 q 127 538 152 514 q 103 597 103 563 q 127 656 103 631 q 186 681 152 681 q 245 656 221 681 q 270 597 270 631 q 245 538 270 563 q 186 514 221 514 z "},";":{"ha":378,"x_min":92,"x_max":271,"o":"m 94 71 l 94 151 q 164 188 144 165 q 92 269 92 199 q 110 326 92 301 l 248 326 q 271 255 271 295 q 215 134 271 185 q 94 71 168 92 m 186 532 q 127 556 152 532 q 103 615 103 581 q 127 674 103 649 q 186 699 152 699 q 245 674 221 699 q 270 615 270 649 q 245 556 270 581 q 186 532 221 532 z "},"<":{"ha":517,"x_min":37,"x_max":429,"o":"m 317 172 l 37 447 l 353 760 q 429 646 429 694 q 395 578 429 614 l 262 448 l 380 331 q 410 283 410 303 q 382 238 409 263 l 317 172 z "},"=":{"ha":660,"x_min":28,"x_max":593,"o":"m 91 565 q 126 681 103 640 q 216 724 149 722 l 593 724 l 593 566 l 91 565 m 28 307 q 64 423 41 382 q 153 465 87 465 l 593 467 l 593 309 l 28 307 z "},">":{"ha":479,"x_min":37,"x_max":429,"o":"m 149 172 l 83 238 q 56 284 56 263 q 85 331 56 304 l 203 448 l 71 578 q 37 646 37 614 q 112 760 37 694 l 429 447 l 149 172 z "},"?":{"ha":573,"x_min":37,"x_max":543,"o":"m 97 218 q 96 267 97 239 q 95 325 95 295 q 96 381 95 345 q 106 452 97 416 q 150 535 123 505 q 212 578 176 565 q 288 595 247 592 q 375 598 330 598 l 376 733 q 332 796 372 780 q 292 804 312 804 q 241 791 271 804 q 206 726 210 779 l 205 667 l 37 669 l 41 790 q 104 897 52 856 q 297 958 182 958 q 391 945 336 958 q 494 882 446 932 q 543 745 541 832 l 541 559 q 529 494 539 521 q 488 455 518 467 q 420 446 460 446 l 380 448 q 308 441 343 448 q 269 397 273 434 l 267 221 l 97 218 m 185 3 q 127 28 151 3 q 102 86 102 52 q 127 145 102 121 q 185 170 151 170 q 244 145 220 170 q 269 86 269 121 q 244 28 269 52 q 185 3 220 3 z "},"@":{"ha":1090,"x_min":62,"x_max":974,"o":"m 494 511 q 537 514 509 511 q 583 542 566 517 q 596 585 596 566 l 598 659 l 483 659 q 413 626 434 656 q 398 581 398 604 q 403 549 398 571 q 446 516 408 528 q 494 511 469 511 m 518 119 q 289 180 393 119 q 124 346 186 242 q 62 574 62 449 q 124 804 62 701 q 289 969 186 907 q 518 1030 393 1030 q 748 969 644 1030 q 912 804 851 907 q 974 574 974 701 q 920 360 974 458 l 790 360 l 773 359 q 708 387 732 359 q 681 441 686 412 l 679 451 q 616 384 673 406 q 490 362 560 362 q 450 362 488 362 q 357 385 412 363 q 283 470 307 408 q 265 566 265 515 q 271 632 265 585 q 329 732 277 679 q 484 791 381 786 l 743 793 l 748 551 q 755 529 749 537 q 798 509 768 509 l 798 508 l 844 508 q 850 574 850 541 q 806 742 850 666 q 685 862 761 817 q 518 907 610 907 q 351 862 427 907 q 231 742 276 817 q 186 574 186 666 q 231 408 186 483 q 351 287 276 332 q 518 242 427 242 q 684 287 609 242 q 716 300 703 298 q 883 302 730 302 q 725 168 820 218 q 518 119 630 119 z "},"A":{"ha":747,"x_min":24,"x_max":773,"o":"m 267 188 q 127 212 181 188 q 41 307 67 238 q 24 401 24 352 q 33 480 24 427 q 99 591 41 533 q 267 654 157 649 l 562 653 l 558 392 q 576 357 562 366 q 603 348 591 348 q 679 347 623 347 q 766 258 749 346 q 773 189 772 221 l 566 189 q 523 203 541 189 q 495 240 505 218 q 482 284 484 262 q 410 211 475 235 q 267 188 346 188 m 277 349 q 327 352 294 349 q 376 386 360 356 q 393 509 393 431 l 266 509 q 189 474 212 507 q 171 424 171 450 q 177 391 171 414 q 224 355 182 368 q 277 349 249 349 z "},"B":{"ha":781,"x_min":-105,"x_max":730,"o":"m 470 714 q 413 738 437 714 q 389 795 389 762 q 413 852 389 828 q 470 876 437 876 q 527 852 503 876 q 551 795 551 828 q 527 738 551 762 q 470 714 503 714 m -54 189 l -53 190 l -105 190 q -97 259 -104 222 q -71 322 -91 296 q -10 349 -51 348 l 28 348 q 65 349 47 348 q 109 403 109 353 l 107 825 q 126 890 107 868 q 181 920 145 911 q 271 928 218 928 l 269 579 q 467 656 358 656 l 489 656 q 545 647 511 655 q 615 617 579 639 q 681 555 652 596 q 723 448 710 515 l 727 427 q 730 391 730 412 q 729 362 730 383 q 715 305 728 341 q 671 239 703 269 q 584 191 640 208 l -54 189 m 271 349 l 543 349 q 562 355 558 349 q 566 385 566 360 q 463 506 566 506 q 384 478 422 506 q 286 372 328 438 l 271 349 z "},"C":{"ha":601,"x_min":44,"x_max":681,"o":"m 681 190 l 45 190 l 45 345 l 44 363 q 94 548 44 462 q 258 652 155 652 l 482 652 q 476 561 482 598 q 445 503 469 523 q 366 483 420 483 l 338 483 q 274 477 300 483 q 239 444 249 472 q 231 371 231 420 l 232 349 l 586 349 q 665 295 645 349 q 681 190 680 256 z "},"D":{"ha":795,"x_min":34,"x_max":868,"o":"m 817 189 l 180 191 q 49 305 77 222 q 34 391 34 346 q 37 430 34 412 l 40 448 q 82 555 53 515 q 148 617 112 596 q 218 647 184 639 q 275 656 252 655 l 297 656 q 494 579 406 656 l 493 928 q 582 920 546 928 q 637 890 618 911 q 656 825 656 868 l 654 403 q 698 349 654 353 q 735 348 716 348 l 774 349 q 868 190 865 347 l 816 190 l 817 189 m 492 349 l 477 372 q 380 478 437 437 q 301 506 341 506 q 197 385 197 506 q 201 355 197 360 q 220 349 205 349 l 492 349 m 411 -15 q 354 8 378 -15 q 331 65 331 32 q 354 122 331 98 q 411 145 378 145 q 468 122 444 145 q 492 65 492 98 q 468 8 492 32 q 411 -15 444 -15 z "},"E":{"ha":544,"x_min":-105,"x_max":538,"o":"m 457 7 l 274 7 q 109 190 120 33 l -105 190 q -97 259 -104 222 q -71 322 -91 296 q -11 349 -51 348 l 28 348 q 65 349 47 348 q 108 382 96 349 l 107 502 q 170 613 121 574 q 293 655 224 655 q 403 621 350 655 q 481 509 456 587 q 494 422 494 471 q 480 310 494 372 q 390 205 460 231 q 296 190 349 190 l 264 193 q 281 162 271 171 q 315 152 292 153 l 538 152 q 523 59 534 92 q 457 7 505 7 m 281 348 q 329 363 311 348 q 346 419 346 378 q 347 429 346 423 q 347 442 347 435 q 343 480 347 458 q 309 509 338 502 l 298 510 q 266 489 273 510 l 264 474 q 264 416 264 444 q 265 349 265 385 l 281 348 z "},"F":{"ha":629,"x_min":-32,"x_max":736,"o":"m 110 -96 l 75 -96 l 75 190 l -32 190 q -24 259 -31 222 q 62 349 -8 347 l 75 349 l 75 373 l 75 397 q 119 564 75 494 q 290 654 175 654 l 454 654 l 454 630 q 449 564 454 592 q 423 522 445 536 q 348 508 401 508 q 248 362 248 508 l 248 349 l 631 349 q 710 313 690 349 q 736 192 730 277 l 235 192 l 235 -1 q 219 -69 235 -49 q 169 -94 202 -90 q 110 -96 144 -96 z "},"G":{"ha":677,"x_min":-94,"x_max":588,"o":"m 260 -90 q -23 -87 138 -90 l -28 -87 q -76 -78 -58 -87 q -94 -28 -94 -68 l -94 82 q -50 73 -75 75 q 206 63 70 63 q 318 65 267 63 q 385 78 363 67 q 412 106 406 89 q 418 146 418 124 l 418 212 q 293 195 359 195 q 244 196 286 195 q 153 218 203 197 q 68 314 94 245 q 50 409 50 359 q 59 487 50 435 q 126 598 68 540 q 293 662 184 656 l 588 661 l 588 238 q 583 96 587 167 q 408 -89 576 -84 l 260 -90 m 482 732 q 426 755 449 732 q 402 812 402 779 q 426 868 402 845 q 482 892 449 892 q 539 868 515 892 q 563 812 563 845 q 539 755 563 779 q 482 732 515 732 m 275 732 q 218 755 241 732 q 195 812 195 779 q 218 868 195 845 q 275 892 241 892 q 332 868 308 892 q 355 812 355 845 q 332 755 355 779 q 275 732 308 732 m 303 356 q 353 360 320 356 q 403 393 387 363 q 418 489 418 440 l 418 493 q 419 517 419 503 l 292 517 q 215 481 238 514 q 197 431 197 456 q 203 398 197 421 q 250 362 209 374 q 303 356 275 356 z "},"H":{"ha":812,"x_min":-43,"x_max":752,"o":"m 752 192 l 678 192 q 598 230 614 192 q 591 268 591 247 l 591 395 q 487 511 589 511 q 359 460 422 511 q 298 351 303 414 l 294 192 l -43 192 q 51 352 -39 351 q 73 351 60 351 q 90 352 83 351 q 125 371 117 354 q 134 409 134 387 l 132 836 q 175 917 134 897 q 295 937 217 937 l 294 586 q 491 662 384 662 l 514 662 q 571 653 536 661 q 642 622 606 644 q 708 558 679 600 q 746 445 740 507 q 752 330 752 382 l 752 192 z "},"I":{"ha":306,"x_min":68,"x_max":248,"o":"m 248 190 l 70 190 q 69 379 69 271 l 68 657 l 121 657 q 244 600 231 657 q 248 568 248 583 l 248 549 l 248 190 z "},"J":{"ha":357,"x_min":-102,"x_max":279,"o":"m 33 -96 l -36 -95 q -84 -86 -66 -95 q -102 -37 -102 -77 l -102 74 q 3 56 -55 56 q 44 59 18 56 q 94 81 69 62 q 118 140 118 100 q 121 562 121 302 q 139 624 121 605 q 193 648 157 643 q 279 654 228 654 l 279 85 q 236 -45 279 3 q 106 -95 192 -92 q 33 -96 45 -96 z "},"K":{"ha":899,"x_min":-60,"x_max":928,"o":"m 279 509 l 22 509 q 32 566 22 536 q 75 595 42 595 l 108 595 q 126 605 122 597 q 132 632 129 610 q 178 707 140 680 q 229 721 199 721 q 290 710 256 721 l 261 646 q 242 648 250 648 q 201 600 201 648 l 202 588 l 279 588 l 279 509 m 387 189 l -7 189 q -46 201 -33 190 q -60 247 -60 213 l -59 348 l 311 348 q 344 359 332 348 q 360 387 356 370 q 365 421 365 404 q 366 511 365 467 q 368 833 368 672 q 386 898 368 876 q 439 928 404 920 q 526 937 475 936 l 526 591 q 741 760 595 709 q 792 690 764 731 q 806 654 806 669 q 797 629 806 635 q 774 617 791 625 q 689 552 726 588 q 640 482 652 517 l 650 482 q 792 444 729 482 q 891 339 855 406 q 928 193 928 273 l 928 190 l 764 190 q 709 304 763 262 q 583 349 654 347 l 545 349 l 526 348 l 526 340 q 485 240 526 281 q 387 189 444 199 z "},"L":{"ha":434,"x_min":52,"x_max":417,"o":"m 417 190 q 202 192 210 190 q 52 333 71 209 l 52 738 l 52 837 q 70 901 52 880 q 123 931 88 923 q 210 941 159 940 l 210 738 l 211 631 l 212 392 q 230 358 216 367 q 256 349 244 349 q 288 348 272 348 l 323 349 q 417 190 414 347 z "},"M":{"ha":1084,"x_min":-77,"x_max":1158,"o":"m 1158 189 l 800 189 q 782 195 789 192 q 748 238 753 212 q 742 281 742 263 q 742 288 742 285 q 743 410 743 290 q 722 491 743 458 q 692 509 711 509 l 591 511 q 592 413 592 465 l 591 191 l 536 191 q 446 207 473 191 q 415 242 420 223 q 410 277 410 262 l 410 410 q 391 491 410 458 q 360 509 379 509 l 273 511 q 274 413 274 465 l 273 190 l -77 190 q -43 322 -75 279 q 21 349 -23 349 l 31 349 q 66 353 50 349 q 93 387 87 359 l 93 654 l 97 654 l 97 656 l 427 654 q 526 640 488 654 q 585 567 570 624 q 584 590 585 580 q 583 606 583 600 q 591 641 583 630 q 648 654 601 654 l 743 654 q 914 524 889 654 q 922 421 922 476 l 922 397 q 922 349 922 372 l 1069 348 q 1135 323 1112 347 q 1158 260 1158 299 l 1158 189 z "},"N":{"ha":948,"x_min":34,"x_max":1048,"o":"m 812 467 q 755 491 779 467 q 731 547 731 514 q 755 604 731 581 q 812 627 779 627 q 868 604 845 627 q 892 547 892 581 q 868 491 892 514 q 812 467 845 467 m 972 191 l 536 191 q 414 248 427 191 q 410 283 410 266 l 407 425 q 378 479 406 461 q 312 497 350 497 q 246 479 274 497 q 216 425 218 461 l 214 291 l 214 279 q 209 245 214 264 q 178 208 204 225 q 87 191 152 191 l 34 191 l 36 463 q 83 576 38 530 q 199 642 129 621 q 303 656 249 656 l 321 656 q 425 642 374 656 q 541 576 495 621 q 587 463 586 530 l 588 382 l 589 368 q 594 352 589 355 q 609 349 599 349 l 617 349 q 636 350 625 350 l 829 347 q 983 351 909 347 q 1048 367 1033 357 l 1048 259 q 1040 214 1048 231 q 972 191 1028 193 z "},"O":{"ha":705,"x_min":-132,"x_max":749,"o":"m 672 189 l 315 191 q 153 257 218 193 q 124 210 143 230 q 75 189 104 189 l -132 189 q -124 259 -131 222 q -98 322 -118 296 q -38 349 -79 348 l 1 348 q 38 349 20 348 q 83 391 75 349 q 80 427 80 409 q 112 546 80 492 q 198 632 144 600 q 317 664 252 664 q 436 632 382 664 q 522 546 490 600 q 554 427 554 492 q 541 349 554 386 q 603 348 573 349 l 749 348 q 744 245 749 271 q 723 204 739 218 q 672 189 707 189 m 317 349 q 372 372 349 349 q 395 427 395 395 q 372 482 395 459 q 317 505 349 505 q 262 482 285 505 q 239 427 239 459 q 262 372 239 395 q 317 349 285 349 z "},"P":{"ha":736,"x_min":-64,"x_max":702,"o":"m 125 -4 l 95 -4 q 37 -3 66 -4 q -14 -3 8 -3 q -54 12 -43 0 q -64 58 -64 24 l -62 157 q -28 156 -47 157 q 35 155 -8 155 q 161 235 161 158 q 165 557 164 548 l 164 649 l 459 650 q 627 587 568 645 q 693 476 685 529 q 702 399 702 424 q 685 302 702 348 q 600 208 659 234 q 505 184 546 184 l 458 184 q 323 205 385 184 l 323 180 q 292 64 323 111 q 199 3 261 18 q 125 -4 169 -4 m 448 345 q 502 351 477 345 q 549 387 544 363 q 555 420 555 410 q 538 470 555 446 q 460 505 514 503 l 334 505 q 336 443 334 475 q 350 382 339 410 q 399 349 366 353 q 448 345 432 345 z "},"Q":{"ha":715,"x_min":34,"x_max":800,"o":"m 642 -4 q 536 3 568 -4 q 444 64 475 18 q 414 180 414 111 l 414 205 q 278 184 352 184 l 232 184 q 137 208 190 184 q 52 302 77 234 q 34 398 34 348 q 43 476 34 423 q 110 587 52 529 q 277 650 168 645 l 572 649 l 571 557 q 572 537 572 547 q 573 356 572 432 q 574 234 574 310 q 701 155 574 158 q 764 156 745 155 q 799 157 783 157 l 800 58 q 790 12 800 24 q 749 -3 780 0 q 700 -3 728 -3 q 642 -4 671 -4 m 288 345 q 337 349 304 345 q 387 382 370 353 q 403 505 403 427 l 276 505 q 199 470 222 503 q 181 420 181 446 q 187 387 181 410 q 234 351 193 363 q 288 345 259 345 m 457 719 q 400 742 424 719 q 376 799 376 766 q 400 856 376 832 q 457 880 424 880 q 514 856 490 880 q 537 799 537 832 q 514 742 537 766 q 457 719 490 719 m 250 719 q 193 742 216 719 q 169 799 169 766 q 193 856 169 832 q 250 880 216 880 q 306 856 283 880 q 330 799 330 832 q 306 742 330 766 q 250 719 283 719 z "},"R":{"ha":504,"x_min":48,"x_max":492,"o":"m 228 190 l 48 190 l 48 488 q 95 610 48 564 q 227 656 138 654 l 492 656 q 484 592 491 626 q 455 535 477 559 q 391 511 434 512 l 279 510 q 235 492 242 509 q 228 454 228 478 l 228 190 z "},"S":{"ha":812,"x_min":-109,"x_max":822,"o":"m 167 -32 q 110 -8 134 -32 q 87 48 87 15 q 110 105 87 81 q 167 129 134 129 q 224 105 200 129 q 248 48 248 81 q 224 -8 248 15 q 167 -32 200 -32 m 404 189 q -37 191 69 189 l -41 191 q -91 200 -73 191 q -109 247 -109 209 l -107 359 q -72 349 -94 352 l 494 349 q 522 366 514 350 q 527 383 527 374 q 524 399 527 391 q 497 424 514 417 q 461 433 480 431 q 429 443 443 436 q 416 469 416 449 l 416 585 q 625 654 475 650 q 699 656 662 656 q 752 655 726 656 l 822 654 l 822 640 q 820 582 822 612 q 808 531 818 553 q 776 510 799 510 l 741 511 l 690 511 q 626 510 665 511 q 569 501 587 509 q 654 431 626 479 q 677 342 677 389 q 675 303 677 335 q 632 232 672 272 q 515 189 592 192 q 404 189 469 189 m 374 -32 q 318 -8 341 -32 q 294 48 294 15 q 318 105 294 81 q 374 129 341 129 q 431 105 408 129 q 454 48 454 81 q 431 -8 454 15 q 374 -32 408 -32 z "},"T":{"ha":511,"x_min":42,"x_max":503,"o":"m 503 190 q 192 192 200 190 q 83 243 124 199 q 42 354 42 287 l 42 837 q 60 901 42 880 q 114 931 79 923 q 201 941 149 940 l 201 692 q 245 656 209 656 q 321 655 264 655 q 408 574 391 655 q 415 511 414 541 l 201 511 l 201 392 q 246 349 210 349 q 327 349 266 349 l 409 349 q 469 322 450 348 q 495 259 489 296 q 503 190 502 222 z "},"U":{"ha":747,"x_min":41,"x_max":806,"o":"m 324 189 l 310 189 q 205 203 256 189 q 90 270 136 224 q 43 382 45 315 l 41 654 l 95 654 q 217 597 203 654 q 221 563 221 579 l 220 547 l 223 420 q 253 366 225 385 q 317 348 281 348 q 381 366 354 348 q 411 420 409 385 l 414 548 l 413 564 q 418 601 413 581 q 449 638 422 621 q 539 655 475 655 l 593 655 l 591 390 q 635 347 598 349 l 667 347 l 711 347 q 806 189 802 346 l 598 189 q 551 207 570 189 q 523 251 532 225 q 429 203 483 220 q 324 189 378 189 z "},"V":{"ha":476,"x_min":-52,"x_max":404,"o":"m 165 189 l 165 190 l 92 190 q 107 284 93 236 q 167 347 121 333 q 95 456 142 406 q -7 540 47 506 q -52 604 -52 570 q -48 631 -52 620 l -48 633 l -5 724 q 242 471 177 644 l 241 758 q 259 822 241 800 q 314 852 278 844 q 404 861 351 861 q 401 243 404 479 q 382 199 401 208 q 336 190 363 190 l 317 190 q 165 189 240 190 z "},"W":{"ha":1059,"x_min":-46,"x_max":1002,"o":"m 250 189 q 234 190 243 189 q 216 191 226 191 q 101 191 158 191 l -46 191 q -40 254 -45 220 q -20 314 -35 288 q 30 344 -4 340 q 66 345 46 345 l 73 345 q 141 351 112 345 q 164 376 157 359 q 171 410 171 394 q 171 551 171 547 q 170 559 170 555 q 186 620 170 597 q 296 658 212 658 l 351 658 l 351 541 l 352 414 l 352 351 l 438 352 q 482 376 474 353 q 489 416 489 393 l 488 427 l 488 560 q 490 588 488 572 q 614 658 498 658 l 669 658 l 669 388 l 669 351 q 770 352 720 351 q 821 410 821 353 l 821 543 l 820 559 q 836 620 820 597 q 946 658 861 658 l 1000 658 l 1000 509 q 1002 357 1000 433 l 1002 340 q 995 273 1002 307 q 965 215 988 239 q 895 191 941 191 l 663 191 l 663 287 q 642 221 653 242 q 610 196 631 201 q 544 191 588 191 l 330 191 l 330 241 q 294 196 315 204 q 250 189 278 189 m 600 901 q 543 925 566 901 q 519 982 519 949 q 543 1039 519 1015 q 600 1062 566 1062 q 656 1039 633 1062 q 680 982 680 1015 q 656 925 680 949 q 600 901 633 901 m 496 734 q 439 758 463 734 q 416 814 416 781 q 439 871 416 848 q 496 895 463 895 q 552 871 529 895 q 576 814 576 848 q 552 758 576 781 q 496 734 529 734 m 703 734 q 647 758 670 734 q 623 814 623 781 q 647 871 623 848 q 703 895 670 895 q 760 871 736 895 q 783 814 783 848 q 760 758 783 781 q 703 734 736 734 z "},"X":{"ha":695,"x_min":18,"x_max":804,"o":"m 487 189 q 397 191 418 189 q 347 218 364 195 q 312 282 332 237 q 274 216 293 239 q 217 190 254 193 l 156 189 q 76 191 89 189 q 18 277 18 204 l 18 349 l 98 348 q 186 349 182 348 q 199 404 199 378 q 178 469 199 431 q 98 522 157 506 q 83 524 92 524 q 66 528 66 526 l 68 654 q 99 655 84 655 q 217 631 159 655 q 312 524 275 608 q 414 634 349 608 q 525 655 465 655 q 555 654 540 655 l 558 528 q 541 524 556 526 q 526 522 534 524 q 439 455 465 505 q 426 405 426 431 q 439 350 426 378 q 586 348 444 348 l 786 348 l 803 349 l 804 301 q 795 232 804 268 q 733 191 786 195 q 630 190 703 191 q 487 189 557 189 z "},"Y":{"ha":684,"x_min":-94,"x_max":597,"o":"m 184 -95 q -21 -94 55 -95 l -26 -94 q -76 -84 -58 -94 q -94 -35 -94 -75 l -93 75 q 196 58 -50 58 q 328 60 268 58 q 396 74 373 62 q 426 102 418 85 q 433 142 433 120 l 433 203 q 330 189 382 189 q 126 260 204 189 q 65 409 68 313 l 65 469 l 63 654 l 117 654 q 208 637 181 654 q 239 600 234 621 q 243 563 243 579 l 245 421 q 340 348 252 348 q 380 354 360 348 q 435 416 425 368 q 435 553 435 484 q 454 618 435 596 q 509 648 473 640 q 597 657 545 656 l 597 50 q 420 -93 575 -87 q 184 -95 314 -95 z "},"Z":{"ha":706,"x_min":31,"x_max":836,"o":"m 322 190 q 149 191 186 190 q 65 237 95 195 q 34 311 36 280 q 31 351 31 342 q 90 475 31 422 q 125 502 110 493 l 140 511 q 81 521 117 521 q 40 551 46 524 q 34 610 34 578 l 35 654 q 59 655 46 655 q 293 597 214 655 l 288 437 l 256 437 q 180 389 180 436 q 222 348 180 353 q 359 347 254 347 l 585 348 q 836 349 673 349 l 836 247 q 815 201 836 214 q 777 192 802 193 q 322 190 644 190 m 557 511 l 494 511 q 418 589 475 582 l 418 659 q 498 632 466 659 l 525 604 q 625 656 560 656 l 627 656 l 627 588 q 557 511 577 581 z "},"a":{"ha":747,"x_min":24,"x_max":773,"o":"m 267 188 q 127 212 181 188 q 41 307 67 238 q 24 401 24 352 q 33 480 24 427 q 99 591 41 533 q 267 654 157 649 l 562 653 l 558 392 q 576 357 562 366 q 603 348 591 348 q 679 347 623 347 q 766 258 749 346 q 773 189 772 221 l 566 189 q 523 203 541 189 q 495 240 505 218 q 482 284 484 262 q 410 211 475 235 q 267 188 346 188 m 277 349 q 327 352 294 349 q 376 386 360 356 q 393 509 393 431 l 266 509 q 189 474 212 507 q 171 424 171 450 q 177 391 171 414 q 224 355 182 368 q 277 349 249 349 z "},"b":{"ha":781,"x_min":-105,"x_max":730,"o":"m 470 714 q 413 738 437 714 q 389 795 389 762 q 413 852 389 828 q 470 876 437 876 q 527 852 503 876 q 551 795 551 828 q 527 738 551 762 q 470 714 503 714 m -54 189 l -53 190 l -105 190 q -97 259 -104 222 q -71 322 -91 296 q -10 349 -51 348 l 28 348 q 65 349 47 348 q 109 403 109 353 l 107 825 q 126 890 107 868 q 181 920 145 911 q 271 928 218 928 l 269 579 q 467 656 358 656 l 489 656 q 545 647 511 655 q 615 617 579 639 q 681 555 652 596 q 723 448 710 515 l 727 427 q 730 391 730 412 q 729 362 730 383 q 715 305 728 341 q 671 239 703 269 q 584 191 640 208 l -54 189 m 271 349 l 543 349 q 562 355 558 349 q 566 385 566 360 q 463 506 566 506 q 384 478 422 506 q 286 372 328 438 l 271 349 z "},"c":{"ha":601,"x_min":44,"x_max":681,"o":"m 681 190 l 45 190 l 45 345 l 44 363 q 94 548 44 462 q 258 652 155 652 l 482 652 q 476 561 482 598 q 445 503 469 523 q 366 483 420 483 l 338 483 q 274 477 300 483 q 239 444 249 472 q 231 371 231 420 l 232 349 l 586 349 q 665 295 645 349 q 681 190 680 256 z "},"d":{"ha":795,"x_min":34,"x_max":868,"o":"m 817 189 l 180 191 q 49 305 77 222 q 34 391 34 346 q 37 430 34 412 l 40 448 q 82 555 53 515 q 148 617 112 596 q 218 647 184 639 q 275 656 252 655 l 297 656 q 494 579 406 656 l 493 928 q 582 920 546 928 q 637 890 618 911 q 656 825 656 868 l 654 403 q 698 349 654 353 q 735 348 716 348 l 774 349 q 868 190 865 347 l 816 190 l 817 189 m 492 349 l 477 372 q 380 478 437 437 q 301 506 341 506 q 197 385 197 506 q 201 355 197 360 q 220 349 205 349 l 492 349 m 411 -15 q 354 8 378 -15 q 331 65 331 32 q 354 122 331 98 q 411 145 378 145 q 468 122 444 145 q 492 65 492 98 q 468 8 492 32 q 411 -15 444 -15 z "},"e":{"ha":544,"x_min":-105,"x_max":538,"o":"m 457 7 l 274 7 q 109 190 120 33 l -105 190 q -97 259 -104 222 q -71 322 -91 296 q -11 349 -51 348 l 28 348 q 65 349 47 348 q 108 382 96 349 l 107 502 q 170 613 121 574 q 293 655 224 655 q 403 621 350 655 q 481 509 456 587 q 494 422 494 471 q 480 310 494 372 q 390 205 460 231 q 296 190 349 190 l 264 193 q 281 162 271 171 q 315 152 292 153 l 538 152 q 523 59 534 92 q 457 7 505 7 m 281 348 q 329 363 311 348 q 346 419 346 378 q 347 429 346 423 q 347 442 347 435 q 343 480 347 458 q 309 509 338 502 l 298 510 q 266 489 273 510 l 264 474 q 264 416 264 444 q 265 349 265 385 l 281 348 z "},"f":{"ha":629,"x_min":-32,"x_max":736,"o":"m 110 -96 l 75 -96 l 75 190 l -32 190 q -24 259 -31 222 q 62 349 -8 347 l 75 349 l 75 373 l 75 397 q 119 564 75 494 q 290 654 175 654 l 454 654 l 454 630 q 449 564 454 592 q 423 522 445 536 q 348 508 401 508 q 248 362 248 508 l 248 349 l 631 349 q 710 313 690 349 q 736 192 730 277 l 235 192 l 235 -1 q 219 -69 235 -49 q 169 -94 202 -90 q 110 -96 144 -96 z "},"g":{"ha":677,"x_min":-94,"x_max":588,"o":"m 260 -90 q -23 -87 138 -90 l -28 -87 q -76 -78 -58 -87 q -94 -28 -94 -68 l -94 82 q -50 73 -75 75 q 206 63 70 63 q 318 65 267 63 q 385 78 363 67 q 412 106 406 89 q 418 146 418 124 l 418 212 q 293 195 359 195 q 244 196 286 195 q 153 218 203 197 q 68 314 94 245 q 50 409 50 359 q 59 487 50 435 q 126 598 68 540 q 293 662 184 656 l 588 661 l 588 238 q 583 96 587 167 q 408 -89 576 -84 l 260 -90 m 482 732 q 426 755 449 732 q 402 812 402 779 q 426 868 402 845 q 482 892 449 892 q 539 868 515 892 q 563 812 563 845 q 539 755 563 779 q 482 732 515 732 m 275 732 q 218 755 241 732 q 195 812 195 779 q 218 868 195 845 q 275 892 241 892 q 332 868 308 892 q 355 812 355 845 q 332 755 355 779 q 275 732 308 732 m 303 356 q 353 360 320 356 q 403 393 387 363 q 418 489 418 440 l 418 493 q 419 517 419 503 l 292 517 q 215 481 238 514 q 197 431 197 456 q 203 398 197 421 q 250 362 209 374 q 303 356 275 356 z "},"h":{"ha":812,"x_min":-43,"x_max":752,"o":"m 752 192 l 678 192 q 598 230 614 192 q 591 268 591 247 l 591 395 q 487 511 589 511 q 359 460 422 511 q 298 351 303 414 l 294 192 l -43 192 q 51 352 -39 351 q 73 351 60 351 q 90 352 83 351 q 125 371 117 354 q 134 409 134 387 l 132 836 q 175 917 134 897 q 295 937 217 937 l 294 586 q 491 662 384 662 l 514 662 q 571 653 536 661 q 642 622 606 644 q 708 558 679 600 q 746 445 740 507 q 752 330 752 382 l 752 192 z "},"i":{"ha":306,"x_min":68,"x_max":248,"o":"m 248 190 l 70 190 q 69 379 69 271 l 68 657 l 121 657 q 244 600 231 657 q 248 568 248 583 l 248 549 l 248 190 z "},"j":{"ha":357,"x_min":-102,"x_max":279,"o":"m 33 -96 l -36 -95 q -84 -86 -66 -95 q -102 -37 -102 -77 l -102 74 q 3 56 -55 56 q 44 59 18 56 q 94 81 69 62 q 118 140 118 100 q 121 562 121 302 q 139 624 121 605 q 193 648 157 643 q 279 654 228 654 l 279 85 q 236 -45 279 3 q 106 -95 192 -92 q 33 -96 45 -96 z "},"k":{"ha":899,"x_min":-60,"x_max":928,"o":"m 279 509 l 22 509 q 32 566 22 536 q 75 595 42 595 l 108 595 q 126 605 122 597 q 132 632 129 610 q 178 707 140 680 q 229 721 199 721 q 290 710 256 721 l 261 646 q 242 648 250 648 q 201 600 201 648 l 202 588 l 279 588 l 279 509 m 387 189 l -7 189 q -46 201 -33 190 q -60 247 -60 213 l -59 348 l 311 348 q 344 359 332 348 q 360 387 356 370 q 365 421 365 404 q 366 511 365 467 q 368 833 368 672 q 386 898 368 876 q 439 928 404 920 q 526 937 475 936 l 526 591 q 741 760 595 709 q 792 690 764 731 q 806 654 806 669 q 797 629 806 635 q 774 617 791 625 q 689 552 726 588 q 640 482 652 517 l 650 482 q 792 444 729 482 q 891 339 855 406 q 928 193 928 273 l 928 190 l 764 190 q 709 304 763 262 q 583 349 654 347 l 545 349 l 526 348 l 526 340 q 485 240 526 281 q 387 189 444 199 z "},"l":{"ha":434,"x_min":52,"x_max":417,"o":"m 417 190 q 202 192 210 190 q 52 333 71 209 l 52 738 l 52 837 q 70 901 52 880 q 123 931 88 923 q 210 941 159 940 l 210 738 l 211 631 l 212 392 q 230 358 216 367 q 256 349 244 349 q 288 348 272 348 l 323 349 q 417 190 414 347 z "},"m":{"ha":1084,"x_min":-77,"x_max":1158,"o":"m 1158 189 l 800 189 q 782 195 789 192 q 748 238 753 212 q 742 281 742 263 q 742 288 742 285 q 743 410 743 290 q 722 491 743 458 q 692 509 711 509 l 591 511 q 592 413 592 465 l 591 191 l 536 191 q 446 207 473 191 q 415 242 420 223 q 410 277 410 262 l 410 410 q 391 491 410 458 q 360 509 379 509 l 273 511 q 274 413 274 465 l 273 190 l -77 190 q -43 322 -75 279 q 21 349 -23 349 l 31 349 q 66 353 50 349 q 93 387 87 359 l 93 654 l 97 654 l 97 656 l 427 654 q 526 640 488 654 q 585 567 570 624 q 584 590 585 580 q 583 606 583 600 q 591 641 583 630 q 648 654 601 654 l 743 654 q 914 524 889 654 q 922 421 922 476 l 922 397 q 922 349 922 372 l 1069 348 q 1135 323 1112 347 q 1158 260 1158 299 l 1158 189 z "},"n":{"ha":948,"x_min":34,"x_max":1048,"o":"m 812 467 q 755 491 779 467 q 731 547 731 514 q 755 604 731 581 q 812 627 779 627 q 868 604 845 627 q 892 547 892 581 q 868 491 892 514 q 812 467 845 467 m 972 191 l 536 191 q 414 248 427 191 q 410 283 410 266 l 407 425 q 378 479 406 461 q 312 497 350 497 q 246 479 274 497 q 216 425 218 461 l 214 291 l 214 279 q 209 245 214 264 q 178 208 204 225 q 87 191 152 191 l 34 191 l 36 463 q 83 576 38 530 q 199 642 129 621 q 303 656 249 656 l 321 656 q 425 642 374 656 q 541 576 495 621 q 587 463 586 530 l 588 382 l 589 368 q 594 352 589 355 q 609 349 599 349 l 617 349 q 636 350 625 350 l 829 347 q 983 351 909 347 q 1048 367 1033 357 l 1048 259 q 1040 214 1048 231 q 972 191 1028 193 z "},"o":{"ha":705,"x_min":-132,"x_max":749,"o":"m 672 189 l 315 191 q 153 257 218 193 q 124 210 143 230 q 75 189 104 189 l -132 189 q -124 259 -131 222 q -98 322 -118 296 q -38 349 -79 348 l 1 348 q 38 349 20 348 q 83 391 75 349 q 80 427 80 409 q 112 546 80 492 q 198 632 144 600 q 317 664 252 664 q 436 632 382 664 q 522 546 490 600 q 554 427 554 492 q 541 349 554 386 q 603 348 573 349 l 749 348 q 744 245 749 271 q 723 204 739 218 q 672 189 707 189 m 317 349 q 372 372 349 349 q 395 427 395 395 q 372 482 395 459 q 317 505 349 505 q 262 482 285 505 q 239 427 239 459 q 262 372 239 395 q 317 349 285 349 z "},"p":{"ha":736,"x_min":-64,"x_max":702,"o":"m 125 -4 l 95 -4 q 37 -3 66 -4 q -14 -3 8 -3 q -54 12 -43 0 q -64 58 -64 24 l -62 157 q -28 156 -47 157 q 35 155 -8 155 q 161 235 161 158 q 165 557 164 548 l 164 649 l 459 650 q 627 587 568 645 q 693 476 685 529 q 702 399 702 424 q 685 302 702 348 q 600 208 659 234 q 505 184 546 184 l 458 184 q 323 205 385 184 l 323 180 q 292 64 323 111 q 199 3 261 18 q 125 -4 169 -4 m 448 345 q 502 351 477 345 q 549 387 544 363 q 555 420 555 410 q 538 470 555 446 q 460 505 514 503 l 334 505 q 336 443 334 475 q 350 382 339 410 q 399 349 366 353 q 448 345 432 345 z "},"q":{"ha":715,"x_min":34,"x_max":800,"o":"m 642 -4 q 536 3 568 -4 q 444 64 475 18 q 414 180 414 111 l 414 205 q 278 184 352 184 l 232 184 q 137 208 190 184 q 52 302 77 234 q 34 398 34 348 q 43 476 34 423 q 110 587 52 529 q 277 650 168 645 l 572 649 l 571 557 q 572 537 572 547 q 573 356 572 432 q 574 234 574 310 q 701 155 574 158 q 764 156 745 155 q 799 157 783 157 l 800 58 q 790 12 800 24 q 749 -3 780 0 q 700 -3 728 -3 q 642 -4 671 -4 m 288 345 q 337 349 304 345 q 387 382 370 353 q 403 505 403 427 l 276 505 q 199 470 222 503 q 181 420 181 446 q 187 387 181 410 q 234 351 193 363 q 288 345 259 345 m 457 719 q 400 742 424 719 q 376 799 376 766 q 400 856 376 832 q 457 880 424 880 q 514 856 490 880 q 537 799 537 832 q 514 742 537 766 q 457 719 490 719 m 250 719 q 193 742 216 719 q 169 799 169 766 q 193 856 169 832 q 250 880 216 880 q 306 856 283 880 q 330 799 330 832 q 306 742 330 766 q 250 719 283 719 z "},"r":{"ha":504,"x_min":48,"x_max":492,"o":"m 228 190 l 48 190 l 48 488 q 95 610 48 564 q 227 656 138 654 l 492 656 q 484 592 491 626 q 455 535 477 559 q 391 511 434 512 l 279 510 q 235 492 242 509 q 228 454 228 478 l 228 190 z "},"s":{"ha":812,"x_min":-109,"x_max":822,"o":"m 167 -32 q 110 -8 134 -32 q 87 48 87 15 q 110 105 87 81 q 167 129 134 129 q 224 105 200 129 q 248 48 248 81 q 224 -8 248 15 q 167 -32 200 -32 m 404 189 q -37 191 69 189 l -41 191 q -91 200 -73 191 q -109 247 -109 209 l -107 359 q -72 349 -94 352 l 494 349 q 522 366 514 350 q 527 383 527 374 q 524 399 527 391 q 497 424 514 417 q 461 433 480 431 q 429 443 443 436 q 416 469 416 449 l 416 585 q 625 654 475 650 q 699 656 662 656 q 752 655 726 656 l 822 654 l 822 640 q 820 582 822 612 q 808 531 818 553 q 776 510 799 510 l 741 511 l 690 511 q 626 510 665 511 q 569 501 587 509 q 654 431 626 479 q 677 342 677 389 q 675 303 677 335 q 632 232 672 272 q 515 189 592 192 q 404 189 469 189 m 374 -32 q 318 -8 341 -32 q 294 48 294 15 q 318 105 294 81 q 374 129 341 129 q 431 105 408 129 q 454 48 454 81 q 431 -8 454 15 q 374 -32 408 -32 z "},"t":{"ha":511,"x_min":42,"x_max":503,"o":"m 503 190 q 192 192 200 190 q 83 243 124 199 q 42 354 42 287 l 42 837 q 60 901 42 880 q 114 931 79 923 q 201 941 149 940 l 201 692 q 245 656 209 656 q 321 655 264 655 q 408 574 391 655 q 415 511 414 541 l 201 511 l 201 392 q 246 349 210 349 q 327 349 266 349 l 409 349 q 469 322 450 348 q 495 259 489 296 q 503 190 502 222 z "},"u":{"ha":747,"x_min":41,"x_max":806,"o":"m 324 189 l 310 189 q 205 203 256 189 q 90 270 136 224 q 43 382 45 315 l 41 654 l 95 654 q 217 597 203 654 q 221 563 221 579 l 220 547 l 223 420 q 253 366 225 385 q 317 348 281 348 q 381 366 354 348 q 411 420 409 385 l 414 548 l 413 564 q 418 601 413 581 q 449 638 422 621 q 539 655 475 655 l 593 655 l 591 390 q 635 347 598 349 l 667 347 l 711 347 q 806 189 802 346 l 598 189 q 551 207 570 189 q 523 251 532 225 q 429 203 483 220 q 324 189 378 189 z "},"v":{"ha":476,"x_min":-52,"x_max":404,"o":"m 165 189 l 165 190 l 92 190 q 107 284 93 236 q 167 347 121 333 q 95 456 142 406 q -7 540 47 506 q -52 604 -52 570 q -48 631 -52 620 l -48 633 l -5 724 q 242 471 177 644 l 241 758 q 259 822 241 800 q 314 852 278 844 q 404 861 351 861 q 401 243 404 479 q 382 199 401 208 q 336 190 363 190 l 317 190 q 165 189 240 190 z "},"w":{"ha":1059,"x_min":-46,"x_max":1002,"o":"m 250 189 q 234 190 243 189 q 216 191 226 191 q 101 191 158 191 l -46 191 q -40 254 -45 220 q -20 314 -35 288 q 30 344 -4 340 q 66 345 46 345 l 73 345 q 141 351 112 345 q 164 376 157 359 q 171 410 171 394 q 171 551 171 547 q 170 559 170 555 q 186 620 170 597 q 296 658 212 658 l 351 658 l 351 541 l 352 414 l 352 351 l 438 352 q 482 376 474 353 q 489 416 489 393 l 488 427 l 488 560 q 490 588 488 572 q 614 658 498 658 l 669 658 l 669 388 l 669 351 q 770 352 720 351 q 821 410 821 353 l 821 543 l 820 559 q 836 620 820 597 q 946 658 861 658 l 1000 658 l 1000 509 q 1002 357 1000 433 l 1002 340 q 995 273 1002 307 q 965 215 988 239 q 895 191 941 191 l 663 191 l 663 287 q 642 221 653 242 q 610 196 631 201 q 544 191 588 191 l 330 191 l 330 241 q 294 196 315 204 q 250 189 278 189 m 600 901 q 543 925 566 901 q 519 982 519 949 q 543 1039 519 1015 q 600 1062 566 1062 q 656 1039 633 1062 q 680 982 680 1015 q 656 925 680 949 q 600 901 633 901 m 496 734 q 439 758 463 734 q 416 814 416 781 q 439 871 416 848 q 496 895 463 895 q 552 871 529 895 q 576 814 576 848 q 552 758 576 781 q 496 734 529 734 m 703 734 q 647 758 670 734 q 623 814 623 781 q 647 871 623 848 q 703 895 670 895 q 760 871 736 895 q 783 814 783 848 q 760 758 783 781 q 703 734 736 734 z "},"x":{"ha":695,"x_min":18,"x_max":804,"o":"m 487 189 q 397 191 418 189 q 347 218 364 195 q 312 282 332 237 q 274 216 293 239 q 217 190 254 193 l 156 189 q 76 191 89 189 q 18 277 18 204 l 18 349 l 98 348 q 186 349 182 348 q 199 404 199 378 q 178 469 199 431 q 98 522 157 506 q 83 524 92 524 q 66 528 66 526 l 68 654 q 99 655 84 655 q 217 631 159 655 q 312 524 275 608 q 414 634 349 608 q 525 655 465 655 q 555 654 540 655 l 558 528 q 541 524 556 526 q 526 522 534 524 q 439 455 465 505 q 426 405 426 431 q 439 350 426 378 q 586 348 444 348 l 786 348 l 803 349 l 804 301 q 795 232 804 268 q 733 191 786 195 q 630 190 703 191 q 487 189 557 189 z "},"y":{"ha":684,"x_min":-94,"x_max":597,"o":"m 184 -95 q -21 -94 55 -95 l -26 -94 q -76 -84 -58 -94 q -94 -35 -94 -75 l -93 75 q 196 58 -50 58 q 328 60 268 58 q 396 74 373 62 q 426 102 418 85 q 433 142 433 120 l 433 203 q 330 189 382 189 q 126 260 204 189 q 65 409 68 313 l 65 469 l 63 654 l 117 654 q 208 637 181 654 q 239 600 234 621 q 243 563 243 579 l 245 421 q 340 348 252 348 q 380 354 360 348 q 435 416 425 368 q 435 553 435 484 q 454 618 435 596 q 509 648 473 640 q 597 657 545 656 l 597 50 q 420 -93 575 -87 q 184 -95 314 -95 z "},"z":{"ha":706,"x_min":31,"x_max":836,"o":"m 322 190 q 149 191 186 190 q 65 237 95 195 q 34 311 36 280 q 31 351 31 342 q 90 475 31 422 q 125 502 110 493 l 140 511 q 81 521 117 521 q 40 551 46 524 q 34 610 34 578 l 35 654 q 59 655 46 655 q 293 597 214 655 l 288 437 l 256 437 q 180 389 180 436 q 222 348 180 353 q 359 347 254 347 l 585 348 q 836 349 673 349 l 836 247 q 815 201 836 214 q 777 192 802 193 q 322 190 644 190 m 557 511 l 494 511 q 418 589 475 582 l 418 659 q 498 632 466 659 l 525 604 q 625 656 560 656 l 627 656 l 627 588 q 557 511 577 581 z "},"±":{"ha":688,"x_min":56,"x_max":652,"o":"m 56 190 q 92 300 69 261 q 181 340 115 340 l 621 342 l 621 191 l 56 190 m 438 405 l 280 405 l 279 608 l 66 608 l 66 759 l 279 760 l 279 963 l 304 964 q 394 949 354 964 q 437 869 435 935 l 437 760 l 650 760 l 652 733 q 636 649 652 687 q 551 609 621 611 l 437 608 l 438 405 z "},"×":{"ha":688,"x_min":72,"x_max":631,"o":"m 519 159 l 351 324 l 184 159 l 73 271 l 238 435 l 106 565 q 72 633 72 601 q 147 747 72 682 l 351 546 l 555 747 q 625 660 606 703 q 631 633 631 647 q 597 565 631 601 l 465 435 l 583 318 q 612 271 612 290 q 584 225 611 250 l 519 159 z "},"÷":{"ha":715,"x_min":62,"x_max":648,"o":"m 62 403 l 62 561 l 647 562 l 648 534 q 633 446 648 486 q 548 404 618 406 l 62 403 m 353 155 q 294 179 318 155 q 269 238 269 203 q 294 297 269 273 q 353 321 318 321 q 411 297 387 321 q 435 238 435 273 q 411 179 435 203 q 353 155 387 155 m 353 649 q 294 673 318 649 q 269 732 269 698 q 294 791 269 766 q 353 815 318 815 q 411 791 387 815 q 435 732 435 766 q 411 673 435 698 q 353 649 387 649 z "},"−":{"ha":688,"x_min":46,"x_max":610,"o":"m 46 406 q 82 522 59 481 q 171 564 104 564 l 610 566 l 610 408 l 46 406 z "},"≤":{"ha":688,"x_min":66,"x_max":563,"o":"m 66 190 q 98 300 78 261 q 176 340 118 340 l 563 342 l 563 191 l 66 190 m 351 398 l 71 659 l 388 957 q 463 849 463 895 q 429 784 463 818 l 297 660 l 415 549 q 444 504 444 523 q 416 461 444 485 l 351 398 z "},"≥":{"ha":611,"x_min":66,"x_max":563,"o":"m 563 190 l 66 191 l 66 342 l 453 340 q 531 300 511 340 q 563 190 551 261 m 278 398 l 213 461 q 185 504 186 485 q 214 549 185 523 l 332 660 l 200 784 q 166 849 166 818 q 241 957 166 895 l 558 659 l 278 398 z "},"":{"ha":1032,"x_min":-105,"x_max":1082,"o":"m 281 349 q 329 363 311 349 q 346 419 346 378 l 347 442 q 343 480 347 458 q 309 510 338 503 l 298 511 q 273 501 281 511 q 264 479 264 491 q 264 475 264 477 q 264 416 264 444 q 265 349 265 385 l 281 349 m 730 728 l 251 728 q 290 787 251 782 q 347 790 330 787 q 361 812 361 795 l 361 871 q 364 886 361 878 q 380 901 366 894 q 426 908 393 908 l 453 908 l 454 863 l 454 790 l 498 790 q 520 799 516 791 q 524 816 524 806 l 524 871 q 526 886 524 878 q 588 908 532 908 l 615 908 q 616 804 615 810 l 616 789 q 667 791 642 790 q 692 812 692 791 l 692 871 q 694 886 692 878 q 757 908 701 908 l 784 908 q 785 792 784 836 l 785 787 q 782 760 785 774 q 766 738 778 747 q 730 728 754 728 m 861 7 q 806 7 846 7 q 737 12 766 7 q 590 191 600 44 l 298 191 q 266 193 277 191 l 264 193 q 345 152 278 156 l 474 152 q 460 59 470 90 q 393 8 441 8 l 338 7 q 256 12 277 7 q 109 190 119 43 l -105 190 q -97 259 -104 222 q -71 322 -91 296 q -10 349 -51 349 q 24 349 -3 349 q 65 349 45 349 q 108 382 96 349 l 107 502 q 191 628 124 589 q 291 656 238 656 q 361 646 312 656 q 458 562 410 636 q 493 422 493 509 q 488 349 493 389 l 642 349 l 761 349 q 810 364 793 349 q 827 420 827 380 l 829 443 q 824 481 829 459 q 791 511 820 503 l 779 511 q 754 502 762 511 q 746 479 746 492 q 745 476 745 478 q 747 393 745 417 l 589 393 l 589 503 q 652 614 602 574 q 772 656 705 656 q 884 622 831 656 q 963 511 937 588 q 975 425 975 473 q 962 311 975 373 q 871 207 942 233 q 783 191 829 191 q 747 193 756 191 l 746 193 q 763 163 753 172 q 796 153 774 154 l 1082 153 q 1067 60 1078 90 q 1002 9 1049 9 l 951 8 q 861 7 908 7 z "}}}
